<?xml version="1.0" standalone="no"?>
<svg viewBox="0 0 200 200" xmlns="http://www.w3.org/2000/svg">
  <path fill="#FF0066" d="M36.9,-62.7C44.7,-52.5,45.7,-36.9,53.6,-23.4C61.5,-9.8,76.4,1.6,79.5,14.7C82.7,27.7,74.2,42.3,62.5,52C50.8,61.6,35.8,66.4,21.7,67.7C7.6,68.9,-5.7,66.8,-16,60.8C-26.2,54.8,-33.5,45.1,-44.2,36.3C-54.8,27.5,-68.9,19.7,-70.9,9.8C-72.9,0,-62.8,-12,-57.3,-27C-51.8,-42,-51,-60,-42.2,-69.8C-33.4,-79.7,-16.7,-81.3,-1.1,-79.6C14.6,-78,29.1,-73,36.9,-62.7Z" transform="translate(100 100)" />
</svg>
