<?xml version="1.0" standalone="no"?>
<svg viewBox="0 0 200 200" xmlns="http://www.w3.org/2000/svg">
  <path fill="#FF0066" d="M42.7,-65C52.5,-60.1,55.7,-43.5,56.8,-29.4C58,-15.2,57.1,-3.6,52.4,5.3C47.7,14.3,39.2,20.4,31.8,25.7C24.4,31,18,35.4,8.8,44.9C-0.4,54.5,-12.5,69.2,-26.4,72.9C-40.3,76.6,-55.9,69.3,-59.7,56.5C-63.5,43.6,-55.5,25.2,-57.5,8.5C-59.4,-8.1,-71.4,-23.1,-69.1,-33C-66.9,-43,-50.5,-48,-36.6,-51C-22.7,-54.1,-11.3,-55.2,2.5,-59.2C16.4,-63.1,32.9,-69.9,42.7,-65Z" transform="translate(100 100)" />
</svg>
